<?xml version="1.0" standalone="no"?>
<!DOCTYPE svg PUBLIC "-//W3C//DTD SVG 20010904//EN"
 "http://www.w3.org/TR/2001/REC-SVG-20010904/DTD/svg10.dtd">
<svg version="1.0" xmlns="http://www.w3.org/2000/svg"
 width="1500.000000pt" height="1500.000000pt" viewBox="0 0 1500.000000 1500.000000"
 preserveAspectRatio="xMidYMid meet">
<metadata>
Created by potrace 1.11, written by Peter Selinger 2001-2013
</metadata>
<g transform="translate(0.000000,1500.000000) scale(0.100000,-0.100000)"
fill="#000000" stroke="none">
<path d="M7168 14995 c-2 -2 -61 -6 -133 -10 -71 -3 -143 -8 -160 -10 -16 -2
-59 -7 -95 -10 -36 -3 -81 -7 -100 -9 -19 -3 -60 -7 -90 -10 -51 -6 -67 -8
-145 -21 -16 -3 -50 -7 -75 -10 -40 -5 -281 -47 -336 -59 -12 -2 -39 -7 -60
-10 -106 -17 -517 -124 -704 -183 -63 -20 -119 -38 -125 -39 -5 -1 -62 -21
-125 -44 -63 -23 -126 -45 -140 -50 -207 -66 -778 -331 -1050 -487 -402 -231
-682 -421 -1055 -718 -264 -209 -712 -644 -944 -915 -140 -164 -151 -178 -231
-280 -28 -36 -56 -72 -63 -80 -79 -99 -365 -511 -411 -595 -9 -16 -31 -52 -48
-80 -158 -256 -361 -651 -479 -934 -22 -53 -45 -107 -51 -121 -79 -183 -257
-712 -293 -873 -2 -12 -18 -76 -35 -142 -34 -132 -40 -161 -71 -315 -48 -248
-78 -428 -95 -585 -3 -33 -8 -73 -10 -90 -2 -16 -6 -61 -9 -100 -3 -38 -7 -83
-10 -100 -26 -179 -26 -973 0 -1235 2 -25 7 -70 9 -100 10 -101 17 -164 27
-235 5 -38 11 -86 14 -106 2 -20 12 -81 21 -135 9 -55 17 -108 19 -119 4 -24
43 -222 49 -250 2 -11 14 -63 25 -115 73 -331 266 -935 375 -1173 14 -32 26
-60 26 -63 0 -3 7 -21 15 -40 8 -19 21 -49 29 -66 300 -682 721 -1341 1231
-1927 167 -192 486 -510 695 -693 109 -96 112 -98 234 -196 22 -19 50 -41 61
-50 112 -94 525 -384 700 -491 211 -130 383 -225 600 -334 168 -84 385 -181
555 -248 69 -28 134 -54 145 -59 28 -13 269 -96 335 -115 30 -9 62 -19 70 -23
8 -3 17 -6 20 -7 3 0 37 -10 75 -22 190 -59 574 -153 725 -177 19 -3 46 -8 60
-11 21 -5 150 -27 230 -40 68 -10 181 -25 230 -30 30 -3 71 -7 90 -10 85 -11
120 -15 200 -20 47 -3 121 -8 165 -12 184 -15 862 -7 1045 12 19 2 69 6 110
10 41 3 86 7 100 9 14 2 54 7 90 11 36 3 76 8 90 10 14 2 45 7 69 10 44 5 88
12 131 20 14 3 41 7 60 10 299 47 699 144 1010 244 239 77 487 166 575 206 17
7 104 46 195 85 219 96 461 217 633 316 32 19 60 34 62 34 11 0 341 207 475
298 157 107 388 275 470 344 25 20 92 76 150 123 58 48 110 92 115 98 6 7 44
41 85 77 95 81 452 438 550 549 41 47 84 95 95 107 176 195 475 594 634 844
30 47 68 108 86 135 42 66 125 206 162 275 17 30 40 73 53 95 74 131 222 440
307 640 113 268 270 711 309 875 2 8 17 65 34 125 16 61 33 126 36 145 3 19 8
38 10 41 3 6 19 74 40 174 13 64 45 229 54 280 5 33 12 69 14 80 5 27 17 112
22 154 2 19 5 48 8 65 15 103 22 156 32 271 3 39 7 86 9 105 20 199 27 848 12
1060 -22 293 -25 325 -48 505 -27 209 -91 584 -103 603 -2 4 -7 26 -11 50 -9
61 -69 304 -116 466 -59 205 -206 633 -244 709 -8 16 -15 34 -15 38 0 23 -252
568 -300 649 -5 8 -39 71 -76 140 -100 184 -383 644 -414 670 -4 3 -21 28 -40
55 -39 57 -206 281 -255 340 -135 165 -211 253 -288 340 -112 125 -488 500
-582 580 -39 33 -72 62 -75 65 -6 7 -118 102 -149 126 -13 11 -28 24 -35 30
-30 27 -253 199 -351 269 -235 169 -523 351 -764 484 -94 53 -372 195 -381
196 -3 1 -28 13 -56 27 -202 105 -742 311 -1059 403 -235 69 -666 169 -860
199 -238 38 -336 51 -450 61 -38 4 -81 8 -95 10 -14 2 -61 6 -105 10 -44 4
-98 8 -120 11 -46 5 -822 14 -827 9z"/>
</g>
</svg>
