<?xml version="1.0" standalone="no"?>
<!DOCTYPE svg PUBLIC "-//W3C//DTD SVG 20010904//EN"
 "http://www.w3.org/TR/2001/REC-SVG-20010904/DTD/svg10.dtd">
<svg version="1.0" xmlns="http://www.w3.org/2000/svg"
 width="120.000000pt" height="120.000000pt" viewBox="0 0 120.000000 120.000000"
 preserveAspectRatio="xMidYMid meet">
<metadata>
Created by potrace 1.11, written by Peter Selinger 2001-2013
</metadata>
<g transform="translate(0.000000,120.000000) scale(0.100000,-0.100000)"
fill="#000000" stroke="none">
<path d="M472 1160 c-254 -60 -443 -291 -444 -544 0 -118 13 -177 60 -271 69
-137 177 -232 330 -289 68 -26 213 -36 282 -21 14 4 36 8 50 11 41 8 149 62
193 96 23 18 61 53 84 78 43 46 120 184 127 230 3 14 5 25 6 25 4 0 9 57 11
120 1 60 -2 89 -15 150 -6 29 -32 94 -49 125 -127 230 -386 348 -635 290z"/>
</g>
</svg>
